<?xml version="1.0" encoding="UTF-8" standalone="no"?>
<svg
   width="600"
   height="480"
   viewBox="0 0 600 480"
   version="1.1"
   id="svg541"
   sodipodi:docname="random_update.svg"
   inkscape:export-filename="/run/media/qqwy/Serendipity/Programming/Personal/elixir/arrays_aja/benchmark_runs/random_update.png"
   inkscape:export-xdpi="300"
   inkscape:export-ydpi="300"
   inkscape:version="1.1 (c4e8f9ed74, 2021-05-24)"
   xmlns:inkscape="http://www.inkscape.org/namespaces/inkscape"
   xmlns:sodipodi="http://sodipodi.sourceforge.net/DTD/sodipodi-0.dtd"
   xmlns:xlink="http://www.w3.org/1999/xlink"
   xmlns="http://www.w3.org/2000/svg"
   xmlns:svg="http://www.w3.org/2000/svg">
  <defs
     id="defs545" />
  <sodipodi:namedview
     id="namedview543"
     pagecolor="#ffffff"
     bordercolor="#666666"
     borderopacity="1.0"
     inkscape:pageshadow="2"
     inkscape:pageopacity="0.0"
     inkscape:pagecheckerboard="0"
     showgrid="false"
     inkscape:zoom="1.4125"
     inkscape:cx="154.33628"
     inkscape:cy="239.64602"
     inkscape:window-width="1920"
     inkscape:window-height="1051"
     inkscape:window-x="1919"
     inkscape:window-y="0"
     inkscape:window-maximized="1"
     inkscape:current-layer="svg541" />
  <title
     id="title2">Gnuplot</title>
  <desc
     id="desc4">Produced by GNUPLOT 5.4 patchlevel 2 </desc>
  <g
     id="gnuplot_canvas">
    <rect
       x="0"
       y="0"
       width="600"
       height="480"
       fill="none"
       id="rect6" />
    <defs
       id="defs34">
      <circle
         id="gpDot"
         r="0.5"
         stroke-width="0.5"
         stroke="currentColor" />
      <path
         id="gpPt0"
         stroke-width="0.222"
         stroke="currentColor"
         d="M-1,0 h2 M0,-1 v2" />
      <path
         id="gpPt1"
         stroke-width="0.222"
         stroke="currentColor"
         d="M-1,-1 L1,1 M1,-1 L-1,1" />
      <path
         id="gpPt2"
         stroke-width="0.222"
         stroke="currentColor"
         d="M-1,0 L1,0 M0,-1 L0,1 M-1,-1 L1,1 M-1,1 L1,-1" />
      <rect
         id="gpPt3"
         stroke-width="0.222"
         stroke="currentColor"
         x="-1"
         y="-1"
         width="2"
         height="2" />
      <rect
         id="gpPt4"
         stroke-width="0.222"
         stroke="currentColor"
         fill="currentColor"
         x="-1"
         y="-1"
         width="2"
         height="2" />
      <circle
         id="gpPt5"
         stroke-width="0.222"
         stroke="currentColor"
         cx="0"
         cy="0"
         r="1" />
      <use
         xlink:href="#gpPt5"
         id="gpPt6"
         fill="currentColor"
         stroke="none" />
      <path
         id="gpPt7"
         stroke-width="0.222"
         stroke="currentColor"
         d="M0,-1.33 L-1.33,0.67 L1.33,0.67 z" />
      <use
         xlink:href="#gpPt7"
         id="gpPt8"
         fill="currentColor"
         stroke="none" />
      <use
         xlink:href="#gpPt7"
         id="gpPt9"
         stroke="currentColor"
         transform="rotate(180)" />
      <use
         xlink:href="#gpPt9"
         id="gpPt10"
         fill="currentColor"
         stroke="none" />
      <use
         xlink:href="#gpPt3"
         id="gpPt11"
         stroke="currentColor"
         transform="rotate(45)" />
      <use
         xlink:href="#gpPt11"
         id="gpPt12"
         fill="currentColor"
         stroke="none" />
      <path
         id="gpPt13"
         stroke-width="0.222"
         stroke="currentColor"
         d="M0,1.330 L1.265,0.411 L0.782,-1.067 L-0.782,-1.076 L-1.265,0.411 z" />
      <use
         xlink:href="#gpPt13"
         id="gpPt14"
         fill="currentColor"
         stroke="none" />
      <filter
         id="textbox"
         filterUnits="objectBoundingBox"
         x="0"
         y="0"
         height="1"
         width="1">
        <feFlood
           flood-color="white"
           flood-opacity="1"
           result="bgnd"
           id="feFlood24" />
        <feComposite
           in="SourceGraphic"
           in2="bgnd"
           operator="atop"
           id="feComposite26" />
      </filter>
      <filter
         id="greybox"
         filterUnits="objectBoundingBox"
         x="0"
         y="0"
         height="1"
         width="1">
        <feFlood
           flood-color="lightgrey"
           flood-opacity="1"
           result="grey"
           id="feFlood29" />
        <feComposite
           in="SourceGraphic"
           in2="grey"
           operator="atop"
           id="feComposite31" />
      </filter>
    </defs>
    <g
       fill="none"
       color="white"
       stroke="currentColor"
       stroke-width="1.00"
       stroke-linecap="butt"
       stroke-linejoin="miter"
       id="g36" />
    <g
       fill="none"
       color="black"
       stroke="currentColor"
       stroke-width="1.00"
       stroke-linecap="butt"
       stroke-linejoin="miter"
       id="g38" />
    <g
       fill="none"
       color="black"
       stroke="black"
       stroke-width="0.50"
       stroke-linecap="butt"
       stroke-linejoin="miter"
       id="g40" />
    <g
       fill="none"
       color="gray"
       stroke="currentColor"
       stroke-width="0.50"
       stroke-linecap="butt"
       stroke-linejoin="miter"
       id="g44">
      <path
         stroke="gray"
         stroke-dasharray="2,4"
         class="gridline"
         d="M80.92,422.40 L574.82,422.40  "
         id="path42" />
    </g>
    <g
       fill="none"
       color="gray"
       stroke="gray"
       stroke-width="1.00"
       stroke-linecap="butt"
       stroke-linejoin="miter"
       id="g46" />
    <g
       fill="none"
       color="black"
       stroke="currentColor"
       stroke-width="1.00"
       stroke-linecap="butt"
       stroke-linejoin="miter"
       id="g56">
      <path
         stroke="black"
         d="M80.92,422.40 L89.92,422.40 M574.82,422.40 L565.82,422.40  "
         id="path48" />
      <g
         transform="translate(72.53,426.30)"
         stroke="none"
         fill="black"
         font-family="Arial"
         font-size="12.00"
         text-anchor="end"
         id="g54">
        <text
           id="text52"><tspan
             font-family="Arial"
             id="tspan50">100ns</tspan></text>
      </g>
    </g>
    <g
       fill="none"
       color="black"
       stroke="currentColor"
       stroke-width="1.00"
       stroke-linecap="butt"
       stroke-linejoin="miter"
       id="g60">
      <path
         stroke="black"
         d="M80.92,403.92 L85.42,403.92 M574.82,403.92 L570.32,403.92 M80.92,393.11 L85.42,393.11 M574.82,393.11 L570.32,393.11   M80.92,385.43 L85.42,385.43 M574.82,385.43 L570.32,385.43 M80.92,379.48 L85.42,379.48 M574.82,379.48 L570.32,379.48   M80.92,374.62 L85.42,374.62 M574.82,374.62 L570.32,374.62 M80.92,370.51 L85.42,370.51 M574.82,370.51 L570.32,370.51   M80.92,366.95 L85.42,366.95 M574.82,366.95 L570.32,366.95 M80.92,363.81 L85.42,363.81 M574.82,363.81 L570.32,363.81    "
         id="path58" />
    </g>
    <g
       fill="none"
       color="black"
       stroke="black"
       stroke-width="0.50"
       stroke-linecap="butt"
       stroke-linejoin="miter"
       id="g62" />
    <g
       fill="none"
       color="gray"
       stroke="currentColor"
       stroke-width="0.50"
       stroke-linecap="butt"
       stroke-linejoin="miter"
       id="g66">
      <path
         stroke="gray"
         stroke-dasharray="2,4"
         class="gridline"
         d="M80.92,361.00 L574.82,361.00  "
         id="path64" />
    </g>
    <g
       fill="none"
       color="gray"
       stroke="gray"
       stroke-width="1.00"
       stroke-linecap="butt"
       stroke-linejoin="miter"
       id="g68" />
    <g
       fill="none"
       color="black"
       stroke="currentColor"
       stroke-width="1.00"
       stroke-linecap="butt"
       stroke-linejoin="miter"
       id="g78">
      <path
         stroke="black"
         d="M80.92,361.00 L89.92,361.00 M574.82,361.00 L565.82,361.00  "
         id="path70" />
      <g
         transform="translate(72.53,364.90)"
         stroke="none"
         fill="black"
         font-family="Arial"
         font-size="12.00"
         text-anchor="end"
         id="g76">
        <text
           id="text74"><tspan
             font-family="Arial"
             id="tspan72">1us</tspan></text>
      </g>
    </g>
    <g
       fill="none"
       color="black"
       stroke="currentColor"
       stroke-width="1.00"
       stroke-linecap="butt"
       stroke-linejoin="miter"
       id="g82">
      <path
         stroke="black"
         d="M80.92,342.52 L85.42,342.52 M574.82,342.52 L570.32,342.52 M80.92,331.71 L85.42,331.71 M574.82,331.71 L570.32,331.71   M80.92,324.04 L85.42,324.04 M574.82,324.04 L570.32,324.04 M80.92,318.09 L85.42,318.09 M574.82,318.09 L570.32,318.09   M80.92,313.22 L85.42,313.22 M574.82,313.22 L570.32,313.22 M80.92,309.11 L85.42,309.11 M574.82,309.11 L570.32,309.11   M80.92,305.55 L85.42,305.55 M574.82,305.55 L570.32,305.55 M80.92,302.41 L85.42,302.41 M574.82,302.41 L570.32,302.41    "
         id="path80" />
    </g>
    <g
       fill="none"
       color="black"
       stroke="black"
       stroke-width="0.50"
       stroke-linecap="butt"
       stroke-linejoin="miter"
       id="g84" />
    <g
       fill="none"
       color="gray"
       stroke="currentColor"
       stroke-width="0.50"
       stroke-linecap="butt"
       stroke-linejoin="miter"
       id="g88">
      <path
         stroke="gray"
         stroke-dasharray="2,4"
         class="gridline"
         d="M80.92,299.60 L574.82,299.60  "
         id="path86" />
    </g>
    <g
       fill="none"
       color="gray"
       stroke="gray"
       stroke-width="1.00"
       stroke-linecap="butt"
       stroke-linejoin="miter"
       id="g90" />
    <g
       fill="none"
       color="black"
       stroke="currentColor"
       stroke-width="1.00"
       stroke-linecap="butt"
       stroke-linejoin="miter"
       id="g100">
      <path
         stroke="black"
         d="M80.92,299.60 L89.92,299.60 M574.82,299.60 L565.82,299.60  "
         id="path92" />
      <g
         transform="translate(72.53,303.50)"
         stroke="none"
         fill="black"
         font-family="Arial"
         font-size="12.00"
         text-anchor="end"
         id="g98">
        <text
           id="text96"><tspan
             font-family="Arial"
             id="tspan94">10us</tspan></text>
      </g>
    </g>
    <g
       fill="none"
       color="black"
       stroke="currentColor"
       stroke-width="1.00"
       stroke-linecap="butt"
       stroke-linejoin="miter"
       id="g104">
      <path
         stroke="black"
         d="M80.92,281.12 L85.42,281.12 M574.82,281.12 L570.32,281.12 M80.92,270.31 L85.42,270.31 M574.82,270.31 L570.32,270.31   M80.92,262.64 L85.42,262.64 M574.82,262.64 L570.32,262.64 M80.92,256.69 L85.42,256.69 M574.82,256.69 L570.32,256.69   M80.92,251.83 L85.42,251.83 M574.82,251.83 L570.32,251.83 M80.92,247.72 L85.42,247.72 M574.82,247.72 L570.32,247.72   M80.92,244.16 L85.42,244.16 M574.82,244.16 L570.32,244.16 M80.92,241.01 L85.42,241.01 M574.82,241.01 L570.32,241.01    "
         id="path102" />
    </g>
    <g
       fill="none"
       color="black"
       stroke="black"
       stroke-width="0.50"
       stroke-linecap="butt"
       stroke-linejoin="miter"
       id="g106" />
    <g
       fill="none"
       color="gray"
       stroke="currentColor"
       stroke-width="0.50"
       stroke-linecap="butt"
       stroke-linejoin="miter"
       id="g110">
      <path
         stroke="gray"
         stroke-dasharray="2,4"
         class="gridline"
         d="M80.92,238.20 L574.82,238.20  "
         id="path108" />
    </g>
    <g
       fill="none"
       color="gray"
       stroke="gray"
       stroke-width="1.00"
       stroke-linecap="butt"
       stroke-linejoin="miter"
       id="g112" />
    <g
       fill="none"
       color="black"
       stroke="currentColor"
       stroke-width="1.00"
       stroke-linecap="butt"
       stroke-linejoin="miter"
       id="g122">
      <path
         stroke="black"
         d="M80.92,238.20 L89.92,238.20 M574.82,238.20 L565.82,238.20  "
         id="path114" />
      <g
         transform="translate(72.53,242.10)"
         stroke="none"
         fill="black"
         font-family="Arial"
         font-size="12.00"
         text-anchor="end"
         id="g120">
        <text
           id="text118"><tspan
             font-family="Arial"
             id="tspan116">100us</tspan></text>
      </g>
    </g>
    <g
       fill="none"
       color="black"
       stroke="currentColor"
       stroke-width="1.00"
       stroke-linecap="butt"
       stroke-linejoin="miter"
       id="g126">
      <path
         stroke="black"
         d="M80.92,219.72 L85.42,219.72 M574.82,219.72 L570.32,219.72 M80.92,208.91 L85.42,208.91 M574.82,208.91 L570.32,208.91   M80.92,201.24 L85.42,201.24 M574.82,201.24 L570.32,201.24 M80.92,195.29 L85.42,195.29 M574.82,195.29 L570.32,195.29   M80.92,190.43 L85.42,190.43 M574.82,190.43 L570.32,190.43 M80.92,186.32 L85.42,186.32 M574.82,186.32 L570.32,186.32   M80.92,182.76 L85.42,182.76 M574.82,182.76 L570.32,182.76 M80.92,179.62 L85.42,179.62 M574.82,179.62 L570.32,179.62    "
         id="path124" />
    </g>
    <g
       fill="none"
       color="black"
       stroke="black"
       stroke-width="0.50"
       stroke-linecap="butt"
       stroke-linejoin="miter"
       id="g128" />
    <g
       fill="none"
       color="gray"
       stroke="currentColor"
       stroke-width="0.50"
       stroke-linecap="butt"
       stroke-linejoin="miter"
       id="g132">
      <path
         stroke="gray"
         stroke-dasharray="2,4"
         class="gridline"
         d="M80.92,176.81 L574.82,176.81  "
         id="path130" />
    </g>
    <g
       fill="none"
       color="gray"
       stroke="gray"
       stroke-width="1.00"
       stroke-linecap="butt"
       stroke-linejoin="miter"
       id="g134" />
    <g
       fill="none"
       color="black"
       stroke="currentColor"
       stroke-width="1.00"
       stroke-linecap="butt"
       stroke-linejoin="miter"
       id="g144">
      <path
         stroke="black"
         d="M80.92,176.81 L89.92,176.81 M574.82,176.81 L565.82,176.81  "
         id="path136" />
      <g
         transform="translate(72.53,180.71)"
         stroke="none"
         fill="black"
         font-family="Arial"
         font-size="12.00"
         text-anchor="end"
         id="g142">
        <text
           id="text140"><tspan
             font-family="Arial"
             id="tspan138">1ms</tspan></text>
      </g>
    </g>
    <g
       fill="none"
       color="black"
       stroke="currentColor"
       stroke-width="1.00"
       stroke-linecap="butt"
       stroke-linejoin="miter"
       id="g148">
      <path
         stroke="black"
         d="M80.92,158.32 L85.42,158.32 M574.82,158.32 L570.32,158.32 M80.92,147.51 L85.42,147.51 M574.82,147.51 L570.32,147.51   M80.92,139.84 L85.42,139.84 M574.82,139.84 L570.32,139.84 M80.92,133.89 L85.42,133.89 M574.82,133.89 L570.32,133.89   M80.92,129.03 L85.42,129.03 M574.82,129.03 L570.32,129.03 M80.92,124.92 L85.42,124.92 M574.82,124.92 L570.32,124.92   M80.92,121.36 L85.42,121.36 M574.82,121.36 L570.32,121.36 M80.92,118.22 L85.42,118.22 M574.82,118.22 L570.32,118.22    "
         id="path146" />
    </g>
    <g
       fill="none"
       color="black"
       stroke="black"
       stroke-width="0.50"
       stroke-linecap="butt"
       stroke-linejoin="miter"
       id="g150" />
    <g
       fill="none"
       color="gray"
       stroke="currentColor"
       stroke-width="0.50"
       stroke-linecap="butt"
       stroke-linejoin="miter"
       id="g154">
      <path
         stroke="gray"
         stroke-dasharray="2,4"
         class="gridline"
         d="M80.92,115.41 L89.31,115.41 M400.35,115.41 L574.82,115.41  "
         id="path152" />
    </g>
    <g
       fill="none"
       color="gray"
       stroke="gray"
       stroke-width="1.00"
       stroke-linecap="butt"
       stroke-linejoin="miter"
       id="g156" />
    <g
       fill="none"
       color="black"
       stroke="currentColor"
       stroke-width="1.00"
       stroke-linecap="butt"
       stroke-linejoin="miter"
       id="g166">
      <path
         stroke="black"
         d="M80.92,115.41 L89.92,115.41 M574.82,115.41 L565.82,115.41  "
         id="path158" />
      <g
         transform="translate(72.53,119.31)"
         stroke="none"
         fill="black"
         font-family="Arial"
         font-size="12.00"
         text-anchor="end"
         id="g164">
        <text
           id="text162"><tspan
             font-family="Arial"
             id="tspan160">10ms</tspan></text>
      </g>
    </g>
    <g
       fill="none"
       color="black"
       stroke="currentColor"
       stroke-width="1.00"
       stroke-linecap="butt"
       stroke-linejoin="miter"
       id="g170">
      <path
         stroke="black"
         d="M80.92,96.93 L85.42,96.93 M574.82,96.93 L570.32,96.93 M80.92,86.11 L85.42,86.11 M574.82,86.11 L570.32,86.11   M80.92,78.44 L85.42,78.44 M574.82,78.44 L570.32,78.44 M80.92,72.49 L85.42,72.49 M574.82,72.49 L570.32,72.49   M80.92,67.63 L85.42,67.63 M574.82,67.63 L570.32,67.63 M80.92,63.52 L85.42,63.52 M574.82,63.52 L570.32,63.52   M80.92,59.96 L85.42,59.96 M574.82,59.96 L570.32,59.96 M80.92,56.82 L85.42,56.82 M574.82,56.82 L570.32,56.82    "
         id="path168" />
    </g>
    <g
       fill="none"
       color="black"
       stroke="black"
       stroke-width="0.50"
       stroke-linecap="butt"
       stroke-linejoin="miter"
       id="g172" />
    <g
       fill="none"
       color="gray"
       stroke="currentColor"
       stroke-width="0.50"
       stroke-linecap="butt"
       stroke-linejoin="miter"
       id="g176">
      <path
         stroke="gray"
         stroke-dasharray="2,4"
         class="gridline"
         d="M80.92,54.01 L574.82,54.01  "
         id="path174" />
    </g>
    <g
       fill="none"
       color="gray"
       stroke="gray"
       stroke-width="1.00"
       stroke-linecap="butt"
       stroke-linejoin="miter"
       id="g178" />
    <g
       fill="none"
       color="black"
       stroke="currentColor"
       stroke-width="1.00"
       stroke-linecap="butt"
       stroke-linejoin="miter"
       id="g188">
      <path
         stroke="black"
         d="M80.92,54.01 L89.92,54.01 M574.82,54.01 L565.82,54.01  "
         id="path180" />
      <g
         transform="translate(72.53,57.91)"
         stroke="none"
         fill="black"
         font-family="Arial"
         font-size="12.00"
         text-anchor="end"
         id="g186">
        <text
           id="text184"><tspan
             font-family="Arial"
             id="tspan182">100ms</tspan></text>
      </g>
    </g>
    <g
       fill="none"
       color="black"
       stroke="currentColor"
       stroke-width="1.00"
       stroke-linecap="butt"
       stroke-linejoin="miter"
       id="g192">
      <path
         stroke="black"
         d="M91.52,422.40 L91.52,417.90 M91.52,54.01 L91.52,58.51 M102.12,422.40 L102.12,417.90 M102.12,54.01 L102.12,58.51   M110.78,422.40 L110.78,417.90 M110.78,54.01 L110.78,58.51 M118.10,422.40 L118.10,417.90 M118.10,54.01 L118.10,58.51   M124.45,422.40 L124.45,417.90 M124.45,54.01 L124.45,58.51 M130.04,422.40 L130.04,417.90 M130.04,54.01 L130.04,58.51    "
         id="path190" />
    </g>
    <g
       fill="none"
       color="black"
       stroke="black"
       stroke-width="0.50"
       stroke-linecap="butt"
       stroke-linejoin="miter"
       id="g194" />
    <g
       fill="none"
       color="gray"
       stroke="currentColor"
       stroke-width="0.50"
       stroke-linecap="butt"
       stroke-linejoin="miter"
       id="g198">
      <path
         stroke="gray"
         stroke-dasharray="2,4"
         class="gridline"
         d="M135.05,422.40 L135.05,135.01 M135.05,63.01 L135.05,54.01  "
         id="path196" />
    </g>
    <g
       fill="none"
       color="gray"
       stroke="gray"
       stroke-width="1.00"
       stroke-linecap="butt"
       stroke-linejoin="miter"
       id="g200" />
    <g
       fill="none"
       color="black"
       stroke="currentColor"
       stroke-width="1.00"
       stroke-linecap="butt"
       stroke-linejoin="miter"
       id="g210">
      <path
         stroke="black"
         d="M135.05,422.40 L135.05,413.40 M135.05,54.01 L135.05,63.01  "
         id="path202" />
      <g
         transform="translate(135.05,444.30)"
         stroke="none"
         fill="black"
         font-family="Arial"
         font-size="12.00"
         text-anchor="middle"
         id="g208">
        <text
           id="text206"><tspan
             font-family="Arial"
             id="tspan204">100</tspan></text>
      </g>
    </g>
    <g
       fill="none"
       color="black"
       stroke="currentColor"
       stroke-width="1.00"
       stroke-linecap="butt"
       stroke-linejoin="miter"
       id="g214">
      <path
         stroke="black"
         d="M167.97,422.40 L167.97,417.90 M167.97,54.01 L167.97,58.51 M187.23,422.40 L187.23,417.90 M187.23,54.01 L187.23,58.51   M200.90,422.40 L200.90,417.90 M200.90,54.01 L200.90,58.51 M211.50,422.40 L211.50,417.90 M211.50,54.01 L211.50,58.51   M220.16,422.40 L220.16,417.90 M220.16,54.01 L220.16,58.51 M227.48,422.40 L227.48,417.90 M227.48,54.01 L227.48,58.51   M233.83,422.40 L233.83,417.90 M233.83,54.01 L233.83,58.51 M239.42,422.40 L239.42,417.90 M239.42,54.01 L239.42,58.51    "
         id="path212" />
    </g>
    <g
       fill="none"
       color="black"
       stroke="black"
       stroke-width="0.50"
       stroke-linecap="butt"
       stroke-linejoin="miter"
       id="g216" />
    <g
       fill="none"
       color="gray"
       stroke="currentColor"
       stroke-width="0.50"
       stroke-linecap="butt"
       stroke-linejoin="miter"
       id="g220">
      <path
         stroke="gray"
         stroke-dasharray="2,4"
         class="gridline"
         d="M244.43,422.40 L244.43,135.01 M244.43,63.01 L244.43,54.01  "
         id="path218" />
    </g>
    <g
       fill="none"
       color="gray"
       stroke="gray"
       stroke-width="1.00"
       stroke-linecap="butt"
       stroke-linejoin="miter"
       id="g222" />
    <g
       fill="none"
       color="black"
       stroke="currentColor"
       stroke-width="1.00"
       stroke-linecap="butt"
       stroke-linejoin="miter"
       id="g232">
      <path
         stroke="black"
         d="M244.43,422.40 L244.43,413.40 M244.43,54.01 L244.43,63.01  "
         id="path224" />
      <g
         transform="translate(244.43,444.30)"
         stroke="none"
         fill="black"
         font-family="Arial"
         font-size="12.00"
         text-anchor="middle"
         id="g230">
        <text
           id="text228"><tspan
             font-family="Arial"
             id="tspan226">1k</tspan></text>
      </g>
    </g>
    <g
       fill="none"
       color="black"
       stroke="currentColor"
       stroke-width="1.00"
       stroke-linecap="butt"
       stroke-linejoin="miter"
       id="g236">
      <path
         stroke="black"
         d="M277.35,422.40 L277.35,417.90 M277.35,54.01 L277.35,58.51 M296.61,422.40 L296.61,417.90 M296.61,54.01 L296.61,58.51   M310.28,422.40 L310.28,417.90 M310.28,54.01 L310.28,58.51 M320.88,422.40 L320.88,417.90 M320.88,54.01 L320.88,58.51   M329.54,422.40 L329.54,417.90 M329.54,54.01 L329.54,58.51 M336.86,422.40 L336.86,417.90 M336.86,54.01 L336.86,58.51   M343.21,422.40 L343.21,417.90 M343.21,54.01 L343.21,58.51 M348.80,422.40 L348.80,417.90 M348.80,54.01 L348.80,58.51    "
         id="path234" />
    </g>
    <g
       fill="none"
       color="black"
       stroke="black"
       stroke-width="0.50"
       stroke-linecap="butt"
       stroke-linejoin="miter"
       id="g238" />
    <g
       fill="none"
       color="gray"
       stroke="currentColor"
       stroke-width="0.50"
       stroke-linecap="butt"
       stroke-linejoin="miter"
       id="g242">
      <path
         stroke="gray"
         stroke-dasharray="2,4"
         class="gridline"
         d="M353.81,422.40 L353.81,135.01 M353.81,63.01 L353.81,54.01  "
         id="path240" />
    </g>
    <g
       fill="none"
       color="gray"
       stroke="gray"
       stroke-width="1.00"
       stroke-linecap="butt"
       stroke-linejoin="miter"
       id="g244" />
    <g
       fill="none"
       color="black"
       stroke="currentColor"
       stroke-width="1.00"
       stroke-linecap="butt"
       stroke-linejoin="miter"
       id="g254">
      <path
         stroke="black"
         d="M353.81,422.40 L353.81,413.40 M353.81,54.01 L353.81,63.01  "
         id="path246" />
      <g
         transform="translate(353.81,444.30)"
         stroke="none"
         fill="black"
         font-family="Arial"
         font-size="12.00"
         text-anchor="middle"
         id="g252">
        <text
           id="text250"><tspan
             font-family="Arial"
             id="tspan248">10k</tspan></text>
      </g>
    </g>
    <g
       fill="none"
       color="black"
       stroke="currentColor"
       stroke-width="1.00"
       stroke-linecap="butt"
       stroke-linejoin="miter"
       id="g258">
      <path
         stroke="black"
         d="M386.73,422.40 L386.73,417.90 M386.73,54.01 L386.73,58.51 M405.99,422.40 L405.99,417.90 M405.99,54.01 L405.99,58.51   M419.66,422.40 L419.66,417.90 M419.66,54.01 L419.66,58.51 M430.26,422.40 L430.26,417.90 M430.26,54.01 L430.26,58.51   M438.92,422.40 L438.92,417.90 M438.92,54.01 L438.92,58.51 M446.24,422.40 L446.24,417.90 M446.24,54.01 L446.24,58.51   M452.59,422.40 L452.59,417.90 M452.59,54.01 L452.59,58.51 M458.18,422.40 L458.18,417.90 M458.18,54.01 L458.18,58.51    "
         id="path256" />
    </g>
    <g
       fill="none"
       color="black"
       stroke="black"
       stroke-width="0.50"
       stroke-linecap="butt"
       stroke-linejoin="miter"
       id="g260" />
    <g
       fill="none"
       color="gray"
       stroke="currentColor"
       stroke-width="0.50"
       stroke-linecap="butt"
       stroke-linejoin="miter"
       id="g264">
      <path
         stroke="gray"
         stroke-dasharray="2,4"
         class="gridline"
         d="M463.19,422.40 L463.19,54.01  "
         id="path262" />
    </g>
    <g
       fill="none"
       color="gray"
       stroke="gray"
       stroke-width="1.00"
       stroke-linecap="butt"
       stroke-linejoin="miter"
       id="g266" />
    <g
       fill="none"
       color="black"
       stroke="currentColor"
       stroke-width="1.00"
       stroke-linecap="butt"
       stroke-linejoin="miter"
       id="g276">
      <path
         stroke="black"
         d="M463.19,422.40 L463.19,413.40 M463.19,54.01 L463.19,63.01  "
         id="path268" />
      <g
         transform="translate(463.19,444.30)"
         stroke="none"
         fill="black"
         font-family="Arial"
         font-size="12.00"
         text-anchor="middle"
         id="g274">
        <text
           id="text272"><tspan
             font-family="Arial"
             id="tspan270">100k</tspan></text>
      </g>
    </g>
    <g
       fill="none"
       color="black"
       stroke="currentColor"
       stroke-width="1.00"
       stroke-linecap="butt"
       stroke-linejoin="miter"
       id="g280">
      <path
         stroke="black"
         d="M496.11,422.40 L496.11,417.90 M496.11,54.01 L496.11,58.51 M515.37,422.40 L515.37,417.90 M515.37,54.01 L515.37,58.51   M529.04,422.40 L529.04,417.90 M529.04,54.01 L529.04,58.51 M539.64,422.40 L539.64,417.90 M539.64,54.01 L539.64,58.51   M548.30,422.40 L548.30,417.90 M548.30,54.01 L548.30,58.51 M555.62,422.40 L555.62,417.90 M555.62,54.01 L555.62,58.51   M561.97,422.40 L561.97,417.90 M561.97,54.01 L561.97,58.51 M567.56,422.40 L567.56,417.90 M567.56,54.01 L567.56,58.51    "
         id="path278" />
    </g>
    <g
       fill="none"
       color="black"
       stroke="black"
       stroke-width="0.50"
       stroke-linecap="butt"
       stroke-linejoin="miter"
       id="g282" />
    <g
       fill="none"
       color="gray"
       stroke="currentColor"
       stroke-width="0.50"
       stroke-linecap="butt"
       stroke-linejoin="miter"
       id="g286">
      <path
         stroke="gray"
         stroke-dasharray="2,4"
         class="gridline"
         d="M572.57,422.40 L572.57,54.01  "
         id="path284" />
    </g>
    <g
       fill="none"
       color="gray"
       stroke="gray"
       stroke-width="1.00"
       stroke-linecap="butt"
       stroke-linejoin="miter"
       id="g288" />
    <g
       fill="none"
       color="black"
       stroke="currentColor"
       stroke-width="1.00"
       stroke-linecap="butt"
       stroke-linejoin="miter"
       id="g298">
      <path
         stroke="black"
         d="M572.57,422.40 L572.57,413.40 M572.57,54.01 L572.57,63.01  "
         id="path290" />
      <g
         transform="translate(572.57,444.30)"
         stroke="none"
         fill="black"
         font-family="Arial"
         font-size="12.00"
         text-anchor="middle"
         id="g296">
        <text
           id="text294"><tspan
             font-family="Arial"
             id="tspan292">1M</tspan></text>
      </g>
    </g>
    <g
       fill="none"
       color="black"
       stroke="currentColor"
       stroke-width="1.00"
       stroke-linecap="butt"
       stroke-linejoin="miter"
       id="g300" />
    <g
       fill="none"
       color="black"
       stroke="currentColor"
       stroke-width="1.00"
       stroke-linecap="butt"
       stroke-linejoin="miter"
       id="g304">
      <path
         stroke="black"
         d="M80.92,54.01 L80.92,422.40 L574.82,422.40 L574.82,54.01 L80.92,54.01 Z  "
         id="path302" />
    </g>
    <g
       fill="none"
       color="black"
       stroke="currentColor"
       stroke-width="1.00"
       stroke-linecap="butt"
       stroke-linejoin="miter"
       id="g312">
      <g
         transform="translate(19.18,238.21) rotate(270)"
         stroke="none"
         fill="black"
         font-family="Arial"
         font-size="12.00"
         text-anchor="middle"
         id="g310">
        <text
           id="text308"><tspan
             font-family="Arial"
             id="tspan306">Average running time</tspan></text>
      </g>
    </g>
    <g
       fill="none"
       color="black"
       stroke="currentColor"
       stroke-width="1.00"
       stroke-linecap="butt"
       stroke-linejoin="miter"
       id="g320">
      <g
         transform="translate(327.87,471.30)"
         stroke="none"
         fill="black"
         font-family="Arial"
         font-size="12.00"
         text-anchor="middle"
         id="g318">
        <text
           id="text316"><tspan
             font-family="Arial"
             id="tspan314">No. elements</tspan></text>
      </g>
    </g>
    <g
       fill="none"
       color="black"
       stroke="currentColor"
       stroke-width="1.00"
       stroke-linecap="butt"
       stroke-linejoin="miter"
       id="g322" />
    <g
       id="gnuplot_plot_1">
      <title
         id="title324">Arrays.replace/3 (A.Vector)</title>
      <g
         fill="none"
         color="black"
         stroke="currentColor"
         stroke-width="1.00"
         stroke-linecap="butt"
         stroke-linejoin="miter"
         id="g332">
        <g
           transform="translate(341.01,75.91)"
           stroke="none"
           fill="black"
           font-family="Arial"
           font-size="12.00"
           text-anchor="end"
           id="g330">
          <text
             id="text328"><tspan
               font-family="Arial"
               id="tspan326">Arrays.replace/3 (A.Vector)</tspan></text>
        </g>
      </g>
      <g
         fill="none"
         color="black"
         stroke="currentColor"
         stroke-width="1.00"
         stroke-linecap="butt"
         stroke-linejoin="miter"
         id="g370">
        <path
           stroke="rgb(  0,   0,   0)"
           d="M349.40,72.01 L391.96,72.01 M80.92,388.29 L113.85,390.54 L146.77,382.45 L179.70,385.84 L212.63,378.42 L245.55,377.60   L278.48,377.27 L311.41,376.33 L344.33,373.58 L377.26,378.29 L410.19,369.62 L443.11,352.40 L476.04,382.48 L508.97,358.88   L541.89,337.17 L574.82,334.43  "
           id="path334" />
        <use
           xlink:href="#gpPt3"
           transform="translate(80.92,388.29) scale(2.25)"
           color="rgb(  0,   0,   0)"
           id="use336" />
        <use
           xlink:href="#gpPt3"
           transform="translate(113.85,390.54) scale(2.25)"
           color="rgb(  0,   0,   0)"
           id="use338" />
        <use
           xlink:href="#gpPt3"
           transform="translate(146.77,382.45) scale(2.25)"
           color="rgb(  0,   0,   0)"
           id="use340" />
        <use
           xlink:href="#gpPt3"
           transform="translate(179.70,385.84) scale(2.25)"
           color="rgb(  0,   0,   0)"
           id="use342" />
        <use
           xlink:href="#gpPt3"
           transform="translate(212.63,378.42) scale(2.25)"
           color="rgb(  0,   0,   0)"
           id="use344" />
        <use
           xlink:href="#gpPt3"
           transform="translate(245.55,377.60) scale(2.25)"
           color="rgb(  0,   0,   0)"
           id="use346" />
        <use
           xlink:href="#gpPt3"
           transform="translate(278.48,377.27) scale(2.25)"
           color="rgb(  0,   0,   0)"
           id="use348" />
        <use
           xlink:href="#gpPt3"
           transform="translate(311.41,376.33) scale(2.25)"
           color="rgb(  0,   0,   0)"
           id="use350" />
        <use
           xlink:href="#gpPt3"
           transform="translate(344.33,373.58) scale(2.25)"
           color="rgb(  0,   0,   0)"
           id="use352" />
        <use
           xlink:href="#gpPt3"
           transform="translate(377.26,378.29) scale(2.25)"
           color="rgb(  0,   0,   0)"
           id="use354" />
        <use
           xlink:href="#gpPt3"
           transform="translate(410.19,369.62) scale(2.25)"
           color="rgb(  0,   0,   0)"
           id="use356" />
        <use
           xlink:href="#gpPt3"
           transform="translate(443.11,352.40) scale(2.25)"
           color="rgb(  0,   0,   0)"
           id="use358" />
        <use
           xlink:href="#gpPt3"
           transform="translate(476.04,382.48) scale(2.25)"
           color="rgb(  0,   0,   0)"
           id="use360" />
        <use
           xlink:href="#gpPt3"
           transform="translate(508.97,358.88) scale(2.25)"
           color="rgb(  0,   0,   0)"
           id="use362" />
        <use
           xlink:href="#gpPt3"
           transform="translate(541.89,337.17) scale(2.25)"
           color="rgb(  0,   0,   0)"
           id="use364" />
        <use
           xlink:href="#gpPt3"
           transform="translate(574.82,334.43) scale(2.25)"
           color="rgb(  0,   0,   0)"
           id="use366" />
        <use
           xlink:href="#gpPt3"
           transform="translate(370.68,72.01) scale(2.25)"
           color="rgb(  0,   0,   0)"
           id="use368" />
      </g>
    </g>
    <g
       id="gnuplot_plot_2">
      <title
         id="title373">Arrays.replace/3 (ErlangArray)</title>
      <g
         fill="none"
         color="black"
         stroke="currentColor"
         stroke-width="1.00"
         stroke-linecap="butt"
         stroke-linejoin="miter"
         id="g381">
        <g
           transform="translate(341.01,93.91)"
           stroke="none"
           fill="black"
           font-family="Arial"
           font-size="12.00"
           text-anchor="end"
           id="g379">
          <text
             id="text377"><tspan
               font-family="Arial"
               id="tspan375">Arrays.replace/3 (ErlangArray)</tspan></text>
        </g>
      </g>
      <g
         fill="none"
         color="black"
         stroke="currentColor"
         stroke-width="1.00"
         stroke-linecap="butt"
         stroke-linejoin="miter"
         id="g419">
        <path
           stroke="rgb(  0, 100,   0)"
           stroke-dasharray="2.5,4.0"
           d="M349.40,90.01 L391.96,90.01 M80.92,382.43 L113.85,395.90 L146.77,393.07 L179.70,390.96 L212.63,387.65 L245.55,388.59   L278.48,386.84 L311.41,384.54 L344.33,383.40 L377.26,383.00 L410.19,336.38 L443.11,332.06 L476.04,327.69 L508.97,323.65   L541.89,323.97 L574.82,317.85  "
           id="path383" />
        <use
           xlink:href="#gpPt4"
           transform="translate(80.92,382.43) scale(2.25)"
           color="rgb(  0, 100,   0)"
           id="use385" />
        <use
           xlink:href="#gpPt4"
           transform="translate(113.85,395.90) scale(2.25)"
           color="rgb(  0, 100,   0)"
           id="use387" />
        <use
           xlink:href="#gpPt4"
           transform="translate(146.77,393.07) scale(2.25)"
           color="rgb(  0, 100,   0)"
           id="use389" />
        <use
           xlink:href="#gpPt4"
           transform="translate(179.70,390.96) scale(2.25)"
           color="rgb(  0, 100,   0)"
           id="use391" />
        <use
           xlink:href="#gpPt4"
           transform="translate(212.63,387.65) scale(2.25)"
           color="rgb(  0, 100,   0)"
           id="use393" />
        <use
           xlink:href="#gpPt4"
           transform="translate(245.55,388.59) scale(2.25)"
           color="rgb(  0, 100,   0)"
           id="use395" />
        <use
           xlink:href="#gpPt4"
           transform="translate(278.48,386.84) scale(2.25)"
           color="rgb(  0, 100,   0)"
           id="use397" />
        <use
           xlink:href="#gpPt4"
           transform="translate(311.41,384.54) scale(2.25)"
           color="rgb(  0, 100,   0)"
           id="use399" />
        <use
           xlink:href="#gpPt4"
           transform="translate(344.33,383.40) scale(2.25)"
           color="rgb(  0, 100,   0)"
           id="use401" />
        <use
           xlink:href="#gpPt4"
           transform="translate(377.26,383.00) scale(2.25)"
           color="rgb(  0, 100,   0)"
           id="use403" />
        <use
           xlink:href="#gpPt4"
           transform="translate(410.19,336.38) scale(2.25)"
           color="rgb(  0, 100,   0)"
           id="use405" />
        <use
           xlink:href="#gpPt4"
           transform="translate(443.11,332.06) scale(2.25)"
           color="rgb(  0, 100,   0)"
           id="use407" />
        <use
           xlink:href="#gpPt4"
           transform="translate(476.04,327.69) scale(2.25)"
           color="rgb(  0, 100,   0)"
           id="use409" />
        <use
           xlink:href="#gpPt4"
           transform="translate(508.97,323.65) scale(2.25)"
           color="rgb(  0, 100,   0)"
           id="use411" />
        <use
           xlink:href="#gpPt4"
           transform="translate(541.89,323.97) scale(2.25)"
           color="rgb(  0, 100,   0)"
           id="use413" />
        <use
           xlink:href="#gpPt4"
           transform="translate(574.82,317.85) scale(2.25)"
           color="rgb(  0, 100,   0)"
           id="use415" />
        <use
           xlink:href="#gpPt4"
           transform="translate(370.68,90.01) scale(2.25)"
           color="rgb(  0, 100,   0)"
           id="use417" />
      </g>
    </g>
    <g
       id="gnuplot_plot_3">
      <title
         id="title422">Arrays.replace/3 (MapArray)</title>
      <g
         fill="none"
         color="black"
         stroke="currentColor"
         stroke-width="1.00"
         stroke-linecap="butt"
         stroke-linejoin="miter"
         id="g430">
        <g
           transform="translate(341.01,111.91)"
           stroke="none"
           fill="black"
           font-family="Arial"
           font-size="12.00"
           text-anchor="end"
           id="g428">
          <text
             id="text426"><tspan
               font-family="Arial"
               id="tspan424">Arrays.replace/3 (MapArray)</tspan></text>
        </g>
      </g>
      <g
         fill="none"
         color="black"
         stroke="currentColor"
         stroke-width="1.00"
         stroke-linecap="butt"
         stroke-linejoin="miter"
         id="g468">
        <path
           stroke="rgb(  0,   0, 255)"
           stroke-dasharray="1.0,2.0"
           d="M349.40,108.01 L391.96,108.01 M80.92,379.63 L113.85,392.11 L146.77,392.96 L179.70,388.98 L212.63,386.44 L245.55,386.59   L278.48,386.41 L311.41,383.99 L344.33,382.09 L377.26,379.51 L410.19,346.87 L443.11,332.87 L476.04,325.80 L508.97,323.66   L541.89,321.83 L574.82,320.34  "
           id="path432" />
        <use
           xlink:href="#gpPt5"
           transform="translate(80.92,379.63) scale(2.25)"
           color="rgb(  0,   0, 255)"
           id="use434" />
        <use
           xlink:href="#gpPt5"
           transform="translate(113.85,392.11) scale(2.25)"
           color="rgb(  0,   0, 255)"
           id="use436" />
        <use
           xlink:href="#gpPt5"
           transform="translate(146.77,392.96) scale(2.25)"
           color="rgb(  0,   0, 255)"
           id="use438" />
        <use
           xlink:href="#gpPt5"
           transform="translate(179.70,388.98) scale(2.25)"
           color="rgb(  0,   0, 255)"
           id="use440" />
        <use
           xlink:href="#gpPt5"
           transform="translate(212.63,386.44) scale(2.25)"
           color="rgb(  0,   0, 255)"
           id="use442" />
        <use
           xlink:href="#gpPt5"
           transform="translate(245.55,386.59) scale(2.25)"
           color="rgb(  0,   0, 255)"
           id="use444" />
        <use
           xlink:href="#gpPt5"
           transform="translate(278.48,386.41) scale(2.25)"
           color="rgb(  0,   0, 255)"
           id="use446" />
        <use
           xlink:href="#gpPt5"
           transform="translate(311.41,383.99) scale(2.25)"
           color="rgb(  0,   0, 255)"
           id="use448" />
        <use
           xlink:href="#gpPt5"
           transform="translate(344.33,382.09) scale(2.25)"
           color="rgb(  0,   0, 255)"
           id="use450" />
        <use
           xlink:href="#gpPt5"
           transform="translate(377.26,379.51) scale(2.25)"
           color="rgb(  0,   0, 255)"
           id="use452" />
        <use
           xlink:href="#gpPt5"
           transform="translate(410.19,346.87) scale(2.25)"
           color="rgb(  0,   0, 255)"
           id="use454" />
        <use
           xlink:href="#gpPt5"
           transform="translate(443.11,332.87) scale(2.25)"
           color="rgb(  0,   0, 255)"
           id="use456" />
        <use
           xlink:href="#gpPt5"
           transform="translate(476.04,325.80) scale(2.25)"
           color="rgb(  0,   0, 255)"
           id="use458" />
        <use
           xlink:href="#gpPt5"
           transform="translate(508.97,323.66) scale(2.25)"
           color="rgb(  0,   0, 255)"
           id="use460" />
        <use
           xlink:href="#gpPt5"
           transform="translate(541.89,321.83) scale(2.25)"
           color="rgb(  0,   0, 255)"
           id="use462" />
        <use
           xlink:href="#gpPt5"
           transform="translate(574.82,320.34) scale(2.25)"
           color="rgb(  0,   0, 255)"
           id="use464" />
        <use
           xlink:href="#gpPt5"
           transform="translate(370.68,108.01) scale(2.25)"
           color="rgb(  0,   0, 255)"
           id="use466" />
      </g>
    </g>
    <g
       id="gnuplot_plot_4">
      <title
         id="title471">List.replace_at/3</title>
      <g
         fill="none"
         color="black"
         stroke="currentColor"
         stroke-width="1.00"
         stroke-linecap="butt"
         stroke-linejoin="miter"
         id="g479">
        <g
           transform="translate(341.01,129.91)"
           stroke="none"
           fill="black"
           font-family="Arial"
           font-size="12.00"
           text-anchor="end"
           id="g477">
          <text
             id="text475"><tspan
               font-family="Arial"
               id="tspan473">List.replace_at/3</tspan></text>
        </g>
      </g>
      <g
         fill="none"
         color="black"
         stroke="currentColor"
         stroke-width="1.00"
         stroke-linecap="butt"
         stroke-linejoin="miter"
         id="g517">
        <path
           stroke="rgb(189, 183, 107)"
           stroke-dasharray="4.0,2.0,1.0,2.0"
           d="M349.40,126.01 L391.96,126.01 M80.92,397.16 L113.85,386.72 L146.77,371.23 L179.70,357.03 L212.63,339.38 L245.55,320.44   L278.48,302.61 L311.41,282.33 L344.33,266.85 L377.26,249.31 L410.19,222.21 L443.11,205.42 L476.04,182.32 L508.97,159.56   L541.89,134.45 L574.82,104.94  "
           id="path481" />
        <use
           xlink:href="#gpPt6"
           transform="translate(80.92,397.16) scale(2.25)"
           color="rgb(189, 183, 107)"
           id="use483" />
        <use
           xlink:href="#gpPt6"
           transform="translate(113.85,386.72) scale(2.25)"
           color="rgb(189, 183, 107)"
           id="use485" />
        <use
           xlink:href="#gpPt6"
           transform="translate(146.77,371.23) scale(2.25)"
           color="rgb(189, 183, 107)"
           id="use487" />
        <use
           xlink:href="#gpPt6"
           transform="translate(179.70,357.03) scale(2.25)"
           color="rgb(189, 183, 107)"
           id="use489" />
        <use
           xlink:href="#gpPt6"
           transform="translate(212.63,339.38) scale(2.25)"
           color="rgb(189, 183, 107)"
           id="use491" />
        <use
           xlink:href="#gpPt6"
           transform="translate(245.55,320.44) scale(2.25)"
           color="rgb(189, 183, 107)"
           id="use493" />
        <use
           xlink:href="#gpPt6"
           transform="translate(278.48,302.61) scale(2.25)"
           color="rgb(189, 183, 107)"
           id="use495" />
        <use
           xlink:href="#gpPt6"
           transform="translate(311.41,282.33) scale(2.25)"
           color="rgb(189, 183, 107)"
           id="use497" />
        <use
           xlink:href="#gpPt6"
           transform="translate(344.33,266.85) scale(2.25)"
           color="rgb(189, 183, 107)"
           id="use499" />
        <use
           xlink:href="#gpPt6"
           transform="translate(377.26,249.31) scale(2.25)"
           color="rgb(189, 183, 107)"
           id="use501" />
        <use
           xlink:href="#gpPt6"
           transform="translate(410.19,222.21) scale(2.25)"
           color="rgb(189, 183, 107)"
           id="use503" />
        <use
           xlink:href="#gpPt6"
           transform="translate(443.11,205.42) scale(2.25)"
           color="rgb(189, 183, 107)"
           id="use505" />
        <use
           xlink:href="#gpPt6"
           transform="translate(476.04,182.32) scale(2.25)"
           color="rgb(189, 183, 107)"
           id="use507" />
        <use
           xlink:href="#gpPt6"
           transform="translate(508.97,159.56) scale(2.25)"
           color="rgb(189, 183, 107)"
           id="use509" />
        <use
           xlink:href="#gpPt6"
           transform="translate(541.89,134.45) scale(2.25)"
           color="rgb(189, 183, 107)"
           id="use511" />
        <use
           xlink:href="#gpPt6"
           transform="translate(574.82,104.94) scale(2.25)"
           color="rgb(189, 183, 107)"
           id="use513" />
        <use
           xlink:href="#gpPt6"
           transform="translate(370.68,126.01) scale(2.25)"
           color="rgb(189, 183, 107)"
           id="use515" />
      </g>
    </g>
    <g
       fill="none"
       color="white"
       stroke="rgb(189, 183, 107)"
       stroke-width="2.00"
       stroke-linecap="butt"
       stroke-linejoin="miter"
       id="g520" />
    <g
       fill="none"
       color="black"
       stroke="currentColor"
       stroke-width="2.00"
       stroke-linecap="butt"
       stroke-linejoin="miter"
       id="g522" />
    <g
       fill="none"
       color="black"
       stroke="black"
       stroke-width="1.00"
       stroke-linecap="butt"
       stroke-linejoin="miter"
       id="g524" />
    <g
       fill="none"
       color="black"
       stroke="currentColor"
       stroke-width="1.00"
       stroke-linecap="butt"
       stroke-linejoin="miter"
       id="g528">
      <path
         stroke="black"
         d="M80.92,54.01 L80.92,422.40 L574.82,422.40 L574.82,54.01 L80.92,54.01 Z  "
         id="path526" />
    </g>
    <g
       fill="none"
       color="black"
       stroke="currentColor"
       stroke-width="1.00"
       stroke-linecap="butt"
       stroke-linejoin="miter"
       id="g536">
      <g
         transform="translate(327.87,30.91)"
         stroke="none"
         fill="black"
         font-family="Arial"
         font-size="12.00"
         text-anchor="middle"
         id="g534">
        <text
           id="text532"><tspan
             font-family="Arial"
             id="tspan530">Updating an element at a random index</tspan></text>
      </g>
    </g>
    <g
       fill="none"
       color="black"
       stroke="currentColor"
       stroke-width="1.00"
       stroke-linecap="butt"
       stroke-linejoin="miter"
       id="g538" />
  </g>
</svg>
